<svg width="16" height="16" viewBox="0 0 16 16" fill="none" xmlns="http://www.w3.org/2000/svg">
<g clip-path="url(#clip0)">
<path fill-rule="evenodd" clip-rule="evenodd" d="M10.2928 4.70711C9.90232 4.31658 9.90232 3.68342 10.2928 3.29289C10.6834 2.90237 11.3165 2.90237 11.7071 3.29289L15.7071 7.29295C15.8946 7.48049 16 7.73485 16 8.00007C16 8.26528 15.8946 8.51964 15.7071 8.70717L11.707 12.7071C11.3165 13.0976 10.6834 13.0976 10.2928 12.7071C9.90232 12.3166 9.90233 11.6834 10.2929 11.2929L12.5858 9H2C1.44772 9 1 8.55228 1 8C1 7.44772 1.44772 7 2 7H12.5857L10.2928 4.70711Z" fill="#3A68C0"/>
</g>
<defs>
<clipPath id="clip0">
<rect width="16" height="16" fill="white" transform="matrix(-1 0 0 1 16 0)"/>
</clipPath>
</defs>
</svg>
