<svg width="40" height="40" viewBox="0 0 40 40" fill="none" xmlns="http://www.w3.org/2000/svg">
<circle cx="26.7144" cy="19.5714" r="11" fill="#FBBD50"/>
<g>
<path d="M16 24.5385C17.0196 24.5385 17.8461 23.7119 17.8461 22.6923C17.8461 21.6727 17.0196 20.8462 16 20.8462C14.9804 20.8462 14.1538 21.6727 14.1538 22.6923C14.1538 23.7119 14.9804 24.5385 16 24.5385Z" stroke="#202C2C" stroke-width="2" stroke-miterlimit="10" stroke-linecap="round" stroke-linejoin="round"/>
<path d="M17.3059 21.3865L23.3982 15.2954" stroke="#202C2C" stroke-width="2" stroke-miterlimit="10" stroke-linecap="round" stroke-linejoin="round"/>
<path d="M4.30774 23.3077H6.76928" stroke="#202C2C" stroke-width="2" stroke-miterlimit="10" stroke-linecap="round" stroke-linejoin="round"/>
<path d="M27.6923 23.3077H25.2307" stroke="#202C2C" stroke-width="2" stroke-miterlimit="10" stroke-linecap="round" stroke-linejoin="round"/>
<path d="M26.8012 18.2184L24.528 19.1599" stroke="#202C2C" stroke-width="2" stroke-miterlimit="10" stroke-linecap="round" stroke-linejoin="round"/>
<path d="M20.4739 11.8899L19.5323 14.1644" stroke="#202C2C" stroke-width="2" stroke-miterlimit="10" stroke-linecap="round" stroke-linejoin="round"/>
<path d="M16 11V13.4615" stroke="#202C2C" stroke-width="2" stroke-miterlimit="10" stroke-linecap="round" stroke-linejoin="round"/>
<path d="M11.5261 11.8899L12.4677 14.1644" stroke="#202C2C" stroke-width="2" stroke-miterlimit="10" stroke-linecap="round" stroke-linejoin="round"/>
<path d="M7.73291 14.424L9.47076 16.1655" stroke="#202C2C" stroke-width="2" stroke-miterlimit="10" stroke-linecap="round" stroke-linejoin="round"/>
<path d="M5.19873 18.2184L7.47073 19.1599" stroke="#202C2C" stroke-width="2" stroke-miterlimit="10" stroke-linecap="round" stroke-linejoin="round"/>
<path d="M16 8.53845C8.18219 8.53845 1.84619 14.8757 1.84619 22.6923V28.2308H30.1539V22.6923C30.1539 14.8757 23.8179 8.53845 16 8.53845Z" stroke="#202C2C" stroke-width="2" stroke-miterlimit="10" stroke-linecap="round" stroke-linejoin="round"/>
</g>
</svg>
