<svg width="40" height="40" viewBox="0 0 40 40" fill="none" xmlns="http://www.w3.org/2000/svg">
<circle cx="27" cy="19.5714" r="11" fill="#FBBD50"/>
<path d="M26.3333 19H7.66667C6.19391 19 5 20.221 5 21.7273V31.2727C5 32.779 6.19391 34 7.66667 34H26.3333C27.8061 34 29 32.779 29 31.2727V21.7273C29 20.221 27.8061 19 26.3333 19Z" stroke="#202C2C" stroke-width="2" stroke-linecap="round" stroke-linejoin="round"/>
<path d="M9.91675 18.5834V12.9167C9.91675 11.0381 10.663 9.23642 11.9914 7.90803C13.3198 6.57965 15.1215 5.83337 17.0001 5.83337C18.8787 5.83337 20.6804 6.57965 22.0088 7.90803C23.3371 9.23642 24.0834 11.0381 24.0834 12.9167V18.5834" stroke="#202C2C" stroke-width="2" stroke-linecap="round" stroke-linejoin="round"/>
</svg>
