<svg width="24" height="24" viewBox="0 0 24 24" fill="none" xmlns="http://www.w3.org/2000/svg">
<path d="M6.527 21.5003H1.527V8.5003H6.527V21.5003ZM4.018 6.5003H3.988C2.477 6.5003 1.5 5.3183 1.5 4.0193C1.5 2.6903 2.508 1.6073 4.047 1.6073C5.588 1.6073 6.535 2.7253 6.566 4.0543C6.565 5.3533 5.588 6.5003 4.018 6.5003ZM15.527 12.5003C14.422 12.5003 13.527 13.3963 13.527 14.5003V21.5003H8.527C8.527 21.5003 8.586 9.5003 8.527 8.5003H13.527V9.9853C13.527 9.9853 15.075 8.5423 17.465 8.5423C20.427 8.5423 22.527 10.6863 22.527 14.8463V21.5003H17.527V14.5003C17.527 13.3963 16.632 12.5003 15.527 12.5003Z" fill="#ED8779"/>
</svg>
