<svg width="24" height="24" viewBox="0 0 24 24" fill="none" xmlns="http://www.w3.org/2000/svg">
<path d="M23.444 4.834C22.63 5.197 21.944 5.209 21.217 4.85C22.155 4.288 22.198 3.893 22.537 2.831C21.659 3.352 20.686 3.731 19.651 3.935C18.823 3.053 17.642 2.5 16.335 2.5C13.825 2.5 11.791 4.536 11.791 7.044C11.791 7.4 11.831 7.747 11.908 8.08C8.132 7.891 4.783 6.082 2.542 3.332C2.151 4.003 1.927 4.784 1.927 5.617C1.927 7.194 2.73 8.584 3.948 9.399C3.203 9.375 2.503 9.171 1.891 8.831C1.89 8.85 1.89 8.868 1.89 8.888C1.89 11.09 3.456 12.926 5.536 13.344C4.87 13.525 4.168 13.553 3.483 13.423C4.062 15.227 5.74 16.541 7.728 16.578C5.783 18.102 3.372 18.737 1 18.459C3.012 19.748 5.399 20.5 7.966 20.5C16.324 20.5 20.894 13.576 20.894 7.571C20.894 7.373 20.891 7.178 20.882 6.983C21.769 6.343 22.835 5.746 23.444 4.834Z" fill="#ED8779"/>
</svg>
