<svg width="107" height="20" viewBox="0 0 107 20" fill="none" xmlns="http://www.w3.org/2000/svg">
<path fill-rule="evenodd" clip-rule="evenodd" d="M102.963 17.5207V19.6186H106.485V6.03941H102.95V8.13732C102.899 7.10744 101.539 5.7597 98.945 5.7597C95.2197 5.7597 92.2317 8.83662 92.2317 12.8417C92.2317 14.6853 92.9183 16.3636 93.9864 17.5969C95.1942 19.0083 97.1141 19.8983 99.1485 19.8983C101.602 19.8983 102.963 18.5633 102.963 17.5207ZM102.683 10.9091V14.965C101.971 15.9695 100.763 16.6434 99.3773 16.6561C97.3176 16.6561 95.7664 15.0795 95.7664 12.9561C95.7664 10.9981 97.1523 9.23077 99.301 9.23077C100.712 9.23077 101.92 9.90464 102.683 10.9091ZM91.1383 6.24285C90.7441 6.17928 90.4263 6.12842 89.8923 6.12842C87.4587 6.12842 85.9379 7.36641 85.9253 8.47823V6.40814H82.3907V20H86.0652V11.4558C86.5229 10.6421 87.7817 9.49778 89.3964 9.49778C89.9304 9.49778 90.4644 9.54863 90.7187 9.63764L91.1383 6.24285ZM85.9253 8.50604C85.9252 8.49678 85.9252 8.48751 85.9253 8.47823V8.50604ZM75.4231 17.5715V19.6694H78.945V6.09027H75.4104V8.18818C75.3595 7.1583 73.9991 5.81055 71.4053 5.81055C67.6799 5.81055 64.692 8.88748 64.692 12.8926C64.692 14.7362 65.3786 16.4145 66.4466 17.6478C67.6545 19.0591 69.5744 19.9491 71.6087 19.9491C74.0627 19.9491 75.4231 18.6141 75.4231 17.5715ZM75.0417 10.9091V14.965C74.3424 15.9695 73.1218 16.6434 71.7359 16.6561C69.6761 16.6561 68.1249 15.0795 68.1249 12.9561C68.1249 10.9981 69.5108 9.23077 71.6596 9.23077C73.0709 9.23077 74.2788 9.90464 75.0417 10.9091ZM48.9514 19.9237L52.397 12.028L55.8427 19.9237H58.3856L64.1453 6.34457H60.4454L57.0887 14.2657L54.2661 7.70502L50.5407 7.69231L47.6799 14.2657L46.4212 11.2524L42.7467 11.2651L46.4085 19.9237H48.9514ZM35.6011 12.4094L42.289 6.30642V6.29371H37.1141L32.397 10.6929V0H28.7225V19.8856H32.397V13.9987L38.1949 19.8856H43.1408L35.6011 12.4094ZM14.1259 14.9778C15.7279 13.5156 16.3891 11.3923 16.1856 9.39611C16.0585 8.11194 15.5245 6.50991 14.6217 5.48003C13.2104 3.89071 11.1888 3.40755 9.21805 3.66185C7.9466 3.82714 6.40814 4.15771 5.36554 5.09859C3.76351 6.56077 3.10235 8.08651 3.30578 10.0827C3.50922 12.0789 3.71265 13.3758 4.61538 14.3929C5.92498 15.8805 7.99746 16.5798 9.84107 16.4654C11.6974 16.351 12.9816 16.0204 14.1259 14.9778ZM9.70121 19.6568C7.47616 19.6568 5.7597 18.7413 3.66179 17.0376C1.56389 15.3338 0 12.5239 0 9.62497C0 7.61607 1.01716 6.01404 2.7082 3.66185C4.39924 1.30965 6.56071 0.317917 9.70121 0.317917C11.7228 0.317917 13.7063 1.48766 15.232 2.5684C17.6097 4.24672 19.3261 6.75148 19.3261 9.86655C19.3261 11.8627 18.3598 14.1259 17.2791 15.639C15.588 18.0166 12.8417 19.6568 9.70121 19.6568ZM9.58687 9.53594L8.25185 12.6256H7.24739L5.82336 9.24351H7.26011L7.74326 10.4132L8.86214 7.84491L10.3243 7.85762L11.4178 10.4132L12.7401 7.31089H14.1768L11.9264 12.6256H10.9346L9.58687 9.53594Z" fill="#202C2C"/>
</svg>
