<svg width="48" height="49" viewBox="0 0 48 49" fill="none" xmlns="http://www.w3.org/2000/svg">
<path fill-rule="evenodd" clip-rule="evenodd" d="M40.2 22.5474C40.7053 27.5053 39.0631 32.7789 35.0842 36.4105C32.2421 39 29.0526 39.821 24.4421 40.1053C19.8632 40.3895 14.7158 38.6526 11.4632 34.9579C9.22105 32.4316 8.71579 29.2105 8.21053 24.2526C7.70526 19.2947 9.34737 15.5053 13.3263 11.8737C15.9158 9.53684 19.7368 8.71579 22.8947 8.30526C27.7895 7.67368 32.8105 8.87368 36.3158 12.8211C38.5579 15.3789 39.8842 19.3579 40.2 22.5474ZM9.09474 41.5263C14.3053 45.7579 18.5684 48.0316 24.0947 48.0316C31.8947 48.0316 38.7158 43.9579 42.9158 38.0526C45.6 34.2947 48 28.6737 48 23.7158C48 15.9789 43.7368 9.7579 37.8316 5.58948C34.0421 2.90527 29.1158 0 24.0947 0C16.2947 0 10.9263 2.46316 6.72632 8.30526C2.52632 14.1474 0 18.1263 0 23.1158C0 30.3158 3.88421 37.2947 9.09474 41.5263ZM20.4953 30.5682L23.8111 22.8945L27.1584 30.5682H29.6216L35.2111 17.3682H31.6426L28.3584 25.0735L25.6426 18.7261L22.0111 18.6945L19.2321 25.0735L18.0321 22.1682H14.4637L18.0005 30.5682H20.4953Z" fill="#3D373C"/>
</svg>
